%TF.GenerationSoftware,KiCad,Pcbnew,(5.1.6)-1*%
%TF.CreationDate,2021-12-15T21:30:18+00:00*%
%TF.ProjectId,elegoo_mars_heater,656c6567-6f6f-45f6-9d61-72735f686561,rev?*%
%TF.SameCoordinates,Original*%
%TF.FileFunction,Copper,L1,Top*%
%TF.FilePolarity,Positive*%
%FSLAX46Y46*%
G04 Gerber Fmt 4.6, Leading zero omitted, Abs format (unit mm)*
G04 Created by KiCad (PCBNEW (5.1.6)-1) date 2021-12-15 21:30:18*
%MOMM*%
%LPD*%
G01*
G04 APERTURE LIST*
%TA.AperFunction,ComponentPad*%
%ADD10C,6.000000*%
%TD*%
%TA.AperFunction,ComponentPad*%
%ADD11C,1.650000*%
%TD*%
%TA.AperFunction,ComponentPad*%
%ADD12R,1.650000X1.650000*%
%TD*%
%TA.AperFunction,Conductor*%
%ADD13C,0.254000*%
%TD*%
G04 APERTURE END LIST*
D10*
%TO.P,J4,2*%
%TO.N,Net-(J3-Pad2)*%
X189776000Y-69654000D03*
%TO.P,J4,1*%
%TO.N,Net-(J3-Pad1)*%
X189776000Y-79814000D03*
%TD*%
%TO.P,J3,2*%
%TO.N,Net-(J3-Pad2)*%
X178276000Y-69494000D03*
%TO.P,J3,1*%
%TO.N,Net-(J3-Pad1)*%
X178276000Y-79654000D03*
%TD*%
D11*
%TO.P,J5,20*%
%TO.N,Net-(J3-Pad2)*%
X166976000Y-73614000D03*
%TO.P,J5,19*%
%TO.N,Net-(J3-Pad1)*%
X166976000Y-76154000D03*
%TO.P,J5,18*%
%TO.N,Net-(J3-Pad2)*%
X164436000Y-73614000D03*
%TO.P,J5,17*%
%TO.N,Net-(J3-Pad1)*%
X164436000Y-76154000D03*
%TO.P,J5,16*%
%TO.N,Net-(J3-Pad2)*%
X161896000Y-73614000D03*
%TO.P,J5,15*%
%TO.N,Net-(J3-Pad1)*%
X161896000Y-76154000D03*
%TO.P,J5,14*%
%TO.N,Net-(J3-Pad2)*%
X159356000Y-73614000D03*
%TO.P,J5,13*%
%TO.N,Net-(J3-Pad1)*%
X159356000Y-76154000D03*
%TO.P,J5,12*%
%TO.N,Net-(J3-Pad2)*%
X156816000Y-73614000D03*
%TO.P,J5,11*%
%TO.N,Net-(J3-Pad1)*%
X156816000Y-76154000D03*
%TO.P,J5,10*%
%TO.N,Net-(J3-Pad2)*%
X154276000Y-73614000D03*
%TO.P,J5,9*%
%TO.N,Net-(J3-Pad1)*%
X154276000Y-76154000D03*
%TO.P,J5,8*%
%TO.N,Net-(J3-Pad2)*%
X151736000Y-73614000D03*
%TO.P,J5,7*%
%TO.N,Net-(J3-Pad1)*%
X151736000Y-76154000D03*
%TO.P,J5,6*%
%TO.N,Net-(J3-Pad2)*%
X149196000Y-73614000D03*
%TO.P,J5,5*%
%TO.N,Net-(J3-Pad1)*%
X149196000Y-76154000D03*
%TO.P,J5,4*%
%TO.N,Net-(J3-Pad2)*%
X146656000Y-73614000D03*
%TO.P,J5,3*%
%TO.N,Net-(J3-Pad1)*%
X146656000Y-76154000D03*
%TO.P,J5,2*%
%TO.N,Net-(J3-Pad2)*%
X144116000Y-73614000D03*
D12*
%TO.P,J5,1*%
%TO.N,Net-(J3-Pad1)*%
X144116000Y-76154000D03*
%TD*%
D13*
%TO.N,Net-(J3-Pad2)*%
G36*
X194591000Y-73527000D02*
G01*
X168776000Y-73527000D01*
X168751224Y-73529440D01*
X168727399Y-73536667D01*
X168705443Y-73548403D01*
X168686197Y-73564197D01*
X168670403Y-73583443D01*
X168658667Y-73605399D01*
X168651440Y-73629224D01*
X168649000Y-73654000D01*
X168649000Y-74527000D01*
X139461000Y-74527000D01*
X139461000Y-66339000D01*
X194591000Y-66339000D01*
X194591000Y-73527000D01*
G37*
X194591000Y-73527000D02*
X168776000Y-73527000D01*
X168751224Y-73529440D01*
X168727399Y-73536667D01*
X168705443Y-73548403D01*
X168686197Y-73564197D01*
X168670403Y-73583443D01*
X168658667Y-73605399D01*
X168651440Y-73629224D01*
X168649000Y-73654000D01*
X168649000Y-74527000D01*
X139461000Y-74527000D01*
X139461000Y-66339000D01*
X194591000Y-66339000D01*
X194591000Y-73527000D01*
%TO.N,Net-(J3-Pad1)*%
G36*
X168649000Y-76154000D02*
G01*
X168651440Y-76178776D01*
X168658667Y-76202601D01*
X168670403Y-76224557D01*
X168686197Y-76243803D01*
X168705443Y-76259597D01*
X168727399Y-76271333D01*
X168751224Y-76278560D01*
X168776000Y-76281000D01*
X194591001Y-76281000D01*
X194591001Y-83469000D01*
X139461000Y-83469000D01*
X139461000Y-75781000D01*
X168649000Y-75781000D01*
X168649000Y-76154000D01*
G37*
X168649000Y-76154000D02*
X168651440Y-76178776D01*
X168658667Y-76202601D01*
X168670403Y-76224557D01*
X168686197Y-76243803D01*
X168705443Y-76259597D01*
X168727399Y-76271333D01*
X168751224Y-76278560D01*
X168776000Y-76281000D01*
X194591001Y-76281000D01*
X194591001Y-83469000D01*
X139461000Y-83469000D01*
X139461000Y-75781000D01*
X168649000Y-75781000D01*
X168649000Y-76154000D01*
%TD*%
M02*
