M48
; DRILL file {KiCad (5.1.6)-1} date 12/15/21 21:30:21
; FORMAT={-:-/ absolute / metric / decimal}
; #@! TF.CreationDate,2021-12-15T21:30:21+00:00
; #@! TF.GenerationSoftware,Kicad,Pcbnew,(5.1.6)-1
; #@! TF.FileFunction,Plated,1,2,PTH
FMAT,2
METRIC
T1C1.100
T2C3.000
%
G90
G05
T1
X144.116Y-73.614
X144.116Y-76.154
X146.656Y-73.614
X146.656Y-76.154
X149.196Y-73.614
X149.196Y-76.154
X151.736Y-73.614
X151.736Y-76.154
X154.276Y-73.614
X154.276Y-76.154
X156.816Y-73.614
X156.816Y-76.154
X159.356Y-73.614
X159.356Y-76.154
X161.896Y-73.614
X161.896Y-76.154
X164.436Y-73.614
X164.436Y-76.154
X166.976Y-73.614
X166.976Y-76.154
T2
X178.276Y-69.494
X178.276Y-79.654
X189.776Y-69.654
X189.776Y-79.814
T0
M30
