M48
; DRILL file {KiCad (5.1.6)-1} date 12/15/21 21:29:57
; FORMAT={-:-/ absolute / metric / decimal}
; #@! TF.CreationDate,2021-12-15T21:29:57+00:00
; #@! TF.GenerationSoftware,Kicad,Pcbnew,(5.1.6)-1
; #@! TF.FileFunction,Plated,1,2,PTH
FMAT,2
METRIC
T1C1.020
T2C1.100
T3C1.501
%
G90
G05
T2
X42.88Y-22.588
X42.88Y-25.128
X45.42Y-22.588
X45.42Y-25.128
X47.96Y-22.588
X47.96Y-25.128
X50.5Y-22.588
X50.5Y-25.128
X53.04Y-22.588
X53.04Y-25.128
X55.58Y-22.588
X55.58Y-25.128
X58.12Y-22.588
X58.12Y-25.128
X60.66Y-22.588
X60.66Y-25.128
X63.2Y-22.588
X63.2Y-25.128
X65.74Y-22.588
X65.74Y-25.128
T3
X35.42Y-32.0
X40.5Y-32.0
T1
G00X20.4Y-22.828
M15
G01X20.4Y-24.348
M16
G05
G00X21.93Y-28.668
M15
G01X23.45Y-28.668
M16
G05
G00X26.5Y-22.828
M15
G01X26.5Y-24.348
M16
G05
T0
M30
